<svg width="246" height="230" viewBox="0 0 246 230" fill="none" xmlns="http://www.w3.org/2000/svg">
<g opacity="0.1" filter="url(#filter0_f_1_899)">
<path d="M49.9941 11C14.6256 11 11 12.9991 11 48.2969V89.9219V99V180.078C11 215.376 14.6256 219 49.9941 219H196.006C231.374 219 235 215.376 235 180.078V99V73.9219V67.9219C235 32.6241 231.374 27 196.006 27H109L93 11H49.9941Z" fill="black"/>
</g>
<g opacity="0.1" filter="url(#filter1_f_1_899)">
<path d="M49.9941 13.0002C14.6256 13.0002 11 14.9994 11 50.2971V91.9221V101V174.078C11 209.376 14.6256 213 49.9941 213H196.006C231.374 213 235 209.376 235 174.078V101V75.9221V69.9221C235 34.6244 231.374 29.0002 196.006 29.0002H109L93 13.0002H49.9941Z" fill="black"/>
</g>
<g opacity="0.1" filter="url(#filter2_f_1_899)">
<path d="M49.9941 12.0002C14.6256 12.0002 11 13.9994 11 49.2971V90.9221V151.578V181.078C11 216.376 14.6256 220 49.9941 220H196.006C231.374 220 235 216.376 235 181.078V151.578V74.9221V68.9221C235 33.6244 231.374 28.0002 196.006 28.0002H109L93 12.0002H49.9941Z" fill="black"/>
</g>
<path d="M49.9941 11.0002C14.6256 11.0002 11 12.9994 11 48.2971V99.0002H235V67.9221C235 32.6244 231.374 27.0002 196.006 27.0002H109L93 11.0002H49.9941Z" fill="url(#paint0_linear_1_899)"/>
<mask id="mask0_1_899" style="mask-type:luminance" maskUnits="userSpaceOnUse" x="11" y="19" width="224" height="89">
<path d="M49.9941 19.0002C14.6256 19.0002 11 20.9994 11 56.2971V107H235V75.9221C235 40.6244 231.374 35.0002 196.006 35.0002H109L93 19.0002H49.9941Z" fill="white"/>
</mask>
<g mask="url(#mask0_1_899)">
<g opacity="0.5" filter="url(#filter3_f_1_899)">
<path d="M49.9935 59.0002C14.625 59.0002 11 62.6252 11 97.923V180.078C11 215.375 14.625 219 49.9935 219H196.006C231.375 219 235 215.375 235 180.078V81.923C235 46.6252 231.375 43.0002 196.006 43.0002H114.75L98.7422 59.0002H49.9935Z" fill="#903906"/>
</g>
</g>
<path d="M49.9935 59.0002C14.625 59.0002 11 62.6253 11 97.923V180.078C11 215.375 14.625 219 49.9935 219H196.007C231.375 219 235 215.375 235 180.078V81.923C235 46.6253 231.375 43.0002 196.007 43.0002H114.75L98.7422 59.0002H49.9935Z" fill="url(#paint1_linear_1_899)"/>
<path d="M173.818 122.862L164.559 104.145C164.559 104.145 164.096 103.616 163.766 103.616H126.53C126.133 103.616 125.737 103.947 125.67 104.344C125.604 104.741 125.803 105.204 126.2 105.336L172.76 124.053C172.76 124.053 172.959 124.053 173.091 124.053C173.356 124.053 173.554 123.921 173.752 123.788C174.017 123.524 174.083 123.127 173.885 122.796L173.818 122.862Z" fill="#C6C6C6"/>
<path d="M148.157 120.548L72.6283 89C72.6283 89 72.2315 89 72.0992 89.1323C71.9669 89.3307 71.9669 89.5291 72.0992 89.7275L123.223 144.423C123.223 144.423 123.422 144.555 123.554 144.555C123.554 144.555 123.753 144.555 123.885 144.423L148.289 121.275C148.289 121.275 148.422 121.01 148.422 120.878C148.422 120.746 148.289 120.614 148.157 120.548Z" fill="#C6C6C6"/>
<path d="M106.689 135.428C106.689 135.428 106.425 135.23 106.292 135.296C106.16 135.296 106.028 135.428 105.962 135.561L79.4405 186.949C79.4405 186.949 79.4405 187.412 79.5727 187.545C79.6389 187.545 79.7711 187.611 79.8373 187.611C79.9696 187.611 80.1018 187.611 80.168 187.479L117.932 148.788C117.932 148.788 118.131 148.325 117.932 148.193L106.689 135.428Z" fill="#C6C6C6"/>
<path opacity="0.1" d="M49.9941 11.0002C14.6256 11.0002 11 12.9994 11 48.2971V50.2971C11 14.9994 14.6256 13.0002 49.9941 13.0002H93L109 29.0002H196.006C231.374 29.0002 235 34.6244 235 69.9221V67.9221C235 32.6244 231.374 27.0002 196.006 27.0002H109L93 11.0002H49.9941Z" fill="black"/>
<path opacity="0.1" d="M114.75 43.0002L98.7422 59.0002H49.9941C14.6256 59.0002 11 62.6244 11 97.9221V99.9221C11 64.6244 14.6256 61.0002 49.9941 61.0002H98.7422L114.75 45.0002H196.006C231.374 45.0002 235 48.6244 235 83.9221V81.9221C235 46.6244 231.374 43.0002 196.006 43.0002H114.75Z" fill="black"/>
<path opacity="0.05" d="M235 153L171 217H196.006C231.374 217 235 213.376 235 178.078V153Z" fill="white"/>
<path opacity="0.2" d="M11 178.078V180.078C11 215.376 14.6256 219 49.9941 219H196.006C231.374 219 235 215.376 235 180.078V178.078C235 213.376 231.374 217 196.006 217H49.9941C14.6256 217 11 213.376 11 178.078Z" fill="#491706"/>
<defs>
<filter id="filter0_f_1_899" x="0.4" y="0.4" width="245.2" height="229.2" filterUnits="userSpaceOnUse" color-interpolation-filters="sRGB">
<feFlood flood-opacity="0" result="BackgroundImageFix"/>
<feBlend mode="normal" in="SourceGraphic" in2="BackgroundImageFix" result="shape"/>
<feGaussianBlur stdDeviation="5.3" result="effect1_foregroundBlur_1_899"/>
</filter>
<filter id="filter1_f_1_899" x="8.88" y="10.8802" width="228.24" height="204.24" filterUnits="userSpaceOnUse" color-interpolation-filters="sRGB">
<feFlood flood-opacity="0" result="BackgroundImageFix"/>
<feBlend mode="normal" in="SourceGraphic" in2="BackgroundImageFix" result="shape"/>
<feGaussianBlur stdDeviation="1.06" result="effect1_foregroundBlur_1_899"/>
</filter>
<filter id="filter2_f_1_899" x="8.88" y="9.88024" width="228.24" height="212.24" filterUnits="userSpaceOnUse" color-interpolation-filters="sRGB">
<feFlood flood-opacity="0" result="BackgroundImageFix"/>
<feBlend mode="normal" in="SourceGraphic" in2="BackgroundImageFix" result="shape"/>
<feGaussianBlur stdDeviation="1.06" result="effect1_foregroundBlur_1_899"/>
</filter>
<filter id="filter3_f_1_899" x="1" y="33.0002" width="244" height="196" filterUnits="userSpaceOnUse" color-interpolation-filters="sRGB">
<feFlood flood-opacity="0" result="BackgroundImageFix"/>
<feBlend mode="normal" in="SourceGraphic" in2="BackgroundImageFix" result="shape"/>
<feGaussianBlur stdDeviation="5" result="effect1_foregroundBlur_1_899"/>
</filter>
<linearGradient id="paint0_linear_1_899" x1="11" y1="219" x2="235" y2="11.0002" gradientUnits="userSpaceOnUse">
<stop stop-color="#2C001E"/>
<stop offset="0.10865" stop-color="#2C001E"/>
<stop offset="0.186898" stop-color="#370626"/>
<stop offset="0.298075" stop-color="#55163B"/>
<stop offset="0.372462" stop-color="#772953"/>
<stop offset="0.44701" stop-color="#7C2B51"/>
<stop offset="0.524289" stop-color="#8B314B"/>
<stop offset="0.596142" stop-color="#8B314B"/>
<stop offset="0.668762" stop-color="#A33A41"/>
<stop offset="0.797552" stop-color="#C44732"/>
<stop offset="0.912512" stop-color="#E65524"/>
<stop offset="1" stop-color="#E65524"/>
</linearGradient>
<linearGradient id="paint1_linear_1_899" x1="11" y1="43.0002" x2="235" y2="219" gradientUnits="userSpaceOnUse">
<stop stop-color="#666666"/>
<stop offset="1" stop-color="#7A7A7A"/>
</linearGradient>
</defs>
</svg>